# xmcd
#
# Track frame offsets: 
#        150
#        9542
#        33302
#        64020
#        93732
#        120722
#        141382
#        161685
#        192897
#
# Disc length: 2850 seconds
#
# Revision: 0
# Processed by: cddbd v1.5.2PL0 Copyright (c) Steve Scherf et al.
# Submitted via: ExactAudioCopy v0.95b3
#
DISCID=7a0b2009
DTITLE=Spiralsea - Essence
DYEAR=1993
DGENRE=Rock
TTITLE0=Through the night
TTITLE1=Passed away
TTITLE2=Clear brightness
TTITLE3=Earth's downfall
TTITLE4=Misère
TTITLE5=Overflow
TTITLE6=A voice within
TTITLE7=The sea floods
TTITLE8=Balance
EXTD=
EXTT0=
EXTT1=
EXTT2=
EXTT3=
EXTT4=
EXTT5=
EXTT6=
EXTT7=
EXTT8=
PLAYORDER=
